# xmcd
#
# Track frame offsets:
#	150
#	18588
#	31935
#	46784
#	63889
#	79741
#	98988
#	113817
#	130181
#	144453
#	162738
#	178011
#
# Disc length: 2595 seconds
#
# Revision: 1
# Processed by: cddbd v1.5.2PL0 Copyright (c) Steve Scherf et al.
# Submitted via: audiograbber 1.83.01
#
DISCID=9c0a210c
DTITLE=Carolyne Jomphe - Une Belle Histoire
DYEAR=1900
DGENRE=Folklore
TTITLE0=Une Belle Histoire (Carolyne Jomphe/Carolyne Jomphe-Albert Babin)
TTITLE1=Premier Rendez-Vous (Carolyne Jomphe/Carolyne Jomphe-Albert Babin)
TTITLE2=C'est L'printemps (Carolyne Jomphe/Carolyne Jomphe-Albert Babin)
TTITLE3=Cow-Boy Cajun (Carolyne Jomphe/Carolyne Jomphe-Albert Babin)
TTITLE4=Mon Beau Chéri (Carolyne Jomphe - Mama rosin traduction)
TTITLE5=L'automne (Carolyne Jomphe/Carolyne Jomphe-Albert Babin)
TTITLE6=L'âge Ingrat (Carolyne Jomphe/Carolyne Jomphe-Albert Babin)
TTITLE7=J'suis Découragée (Carolyne Jomphe/Carolyne Jomphe-Albert Babin)
TTITLE8=Mon Beau Bum (Carolyne Jomphe/Carolyne Jomphe-Albert Babin)
TTITLE9=Ashineuatshe (Carolyne Jomphe/Carolyne Jomphe-Albert Babin)
TTITLE10=Mère À Partager (Carolyne Jomphe/Carolyne Jomphe-Albert Babin)
TTITLE11=Si Demain (Carolyne Jomphe/Carolyne Jomphe-Albert Babin)
EXTD=
EXTT0=
EXTT1=
EXTT2=
EXTT3=
EXTT4=
EXTT5=
EXTT6=
EXTT7=
EXTT8=
EXTT9=
EXTT10=
EXTT11=
PLAYORDER=
